<?xml version="1.0" encoding="UTF-8"?>
<svg id="laugh" xmlns="http://www.w3.org/2000/svg" xmlns:xlink="http://www.w3.org/1999/xlink" viewBox="0 0 138 138">
  <defs>
    <filter id="drop-shadow-1" x="0" y="0" width="138" height="138" filterUnits="userSpaceOnUse">
      <feOffset dx="2" dy="2"/>
      <feGaussianBlur result="blur" stdDeviation="1"/>
      <feFlood flood-color="#000" flood-opacity=".53"/>
      <feComposite in2="blur" operator="in"/>
      <feComposite in="SourceGraphic"/>
    </filter>
    <filter id="drop-shadow-2" x="26" y="49" width="86" height="84" filterUnits="userSpaceOnUse">
      <feOffset dx="0" dy="5"/>
      <feGaussianBlur result="blur-2" stdDeviation="3"/>
      <feFlood flood-color="#000" flood-opacity=".6"/>
      <feComposite in2="blur-2" operator="in"/>
      <feComposite in="SourceGraphic"/>
    </filter>
  </defs>
  <circle class="emoji-head" cx="67.37" cy="67.33" r="62.5" style="fill: #ffd21c; filter: url(#drop-shadow-1); stroke: #f4b70b; stroke-linecap: round; stroke-linejoin: round; stroke-width: 6px;"/>
  <circle id="left-blush" cx="104.26" cy="65.22" r="9.4" style="fill: #ffaf36;"/>
  <circle id="right-blush" cx="33.11" cy="65.22" r="9.4" style="fill: #ffaf36;"/>
  <path class="mouth" d="M97.51,80.02c.86,0,1.33,1.3.77,2.13-3.23,4.79-12.74,16-30.86,16s-28.01-11.27-30.99-16.04c-.53-.84-.05-2.09.79-2.09,0,0,9.45,12.37,30.14,12.37s30.14-12.37,30.14-12.37Z" style="stroke: #000; stroke-miterlimit: 10; stroke-width: 3px;"/>
  <path class="right-eye" d="M56.54,51.12c-1.49,8.95-4.56-.92-9.39-.92s-7.54,11.97-9.39.94c-1.34-7.97,4.21-16.34,9.39-16.34s10.72,8.34,9.39,16.32Z"/>
  <path class="left-eye" d="M79.54,51.12c1.49,8.95,4.56-.92,9.39-.92s7.54,11.97,9.39.94c1.34-7.97-4.21-16.34-9.39-16.34s-10.72,8.34-9.39,16.32Z"/>
  <path id="hand" d="M56.07,57.7c1.9-3.95,4.79-1.31,4.3,4.47-.27,3.17-4.8,10.02-5.69,13.07-.69,2.36-2.92,6.05-.48,7.11,1.05.45,2.23.57,3.45-.05,3.8-1.95,21.1-26.95,26.05-20.27,2.07,2.79-10.84,11.63-13.45,16.71-.61,1.19-2.03,4.82,1.92,3.69,7.98-2.28,20.76-18.31,23.71-14.33,3.4,4.58-15.37,13.78-19.59,19.89-.75,1.08-2.53,4.43.84,3.68s20.29-15.97,23.1-12.19-15.36,14.81-20.56,17.97c-.65.4-3.53,2.82-.3,3.05s16.24-8.56,18.12-6.03c2.06,2.78-20.04,15.14-20.04,15.14l-8.3,3.95c-3.81,1.81-7.93,2.9-12.15,3.06-3.03.12-6.43-.2-9.44-1.9-6.02-3.41-10.14-7.53-10.01-11.78.02-.66.15-.44.24-1.3.65-6.07,2.34-11.98,4.94-17.5,1.1-2.34,2.3-5.16,3.54-8.04,4.32-10.09,8.12-14.9,9.8-18.38Z" style="fill: #ffd21c; filter: url(#drop-shadow-2); stroke: #fea52a; stroke-miterlimit: 10; stroke-width: 4px;"/>
</svg>