<?xml version="1.0" encoding="UTF-8"?>
<svg id="sour" xmlns="http://www.w3.org/2000/svg" xmlns:xlink="http://www.w3.org/1999/xlink" viewBox="0 0 138 138">
  <defs>
    <filter id="drop-shadow-1" x="0" y="0" width="138" height="138" filterUnits="userSpaceOnUse">
      <feOffset dx="2" dy="2"/>
      <feGaussianBlur result="blur" stdDeviation="1"/>
      <feFlood flood-color="#000" flood-opacity=".53"/>
      <feComposite in2="blur" operator="in"/>
      <feComposite in="SourceGraphic"/>
    </filter>
  </defs>
  <circle class="emoji-head" cx="67" cy="66.97" r="62.5" style="fill: #ffd21c; filter: url(#drop-shadow-1); stroke: #f4b70b; stroke-linecap: round; stroke-linejoin: round; stroke-width: 6px;"/>
  <g id="face">
    <path class="mouth" d="M79.08,105.45c-.52,0-1.06-.11-1.64-.36l-.1-.04c-1.31-.64-2.28-1.93-3.61-3.71l-2.32-3.12c-1.17-1.58-2.38-3.22-3.39-4.57-.26-.31-.5-.63-.73-.95-.01-.02-.03-.04-.04-.06l-.1.14c-.85,1.17-1.97,2.77-3.15,4.46-1.38,1.97-2.81,4.02-3.8,5.37-.63.85-1.94,2.64-4.08,2.71-1.96.06-3.34-1.3-4.23-2.35-.89-1.01-1.96-2.33-3-3.6-.64-.79-1.27-1.56-1.81-2.21-.81-.99-1.34-1.54-1.6-1.67-.09.02-.41.1-1.04.51l-.07.04c-1.99,1.19-4.25,2.6-6.44,3.95-1.34.83-2.66,1.65-3.89,2.41l-2.78-4.54c1.22-.75,2.54-1.56,3.87-2.39,2.19-1.36,4.46-2.77,6.48-3.98,5.08-3.24,7.89.21,9.57,2.27.54.64,1.18,1.43,1.84,2.24,1.01,1.24,2.05,2.53,2.87,3.45h0s0,0,.01-.01c.96-1.31,2.37-3.32,3.73-5.27,1.2-1.72,2.34-3.35,3.22-4.56l.23-.3c.56-.74,1.26-1.67,2.33-2.29l.23-.12c3.02-1.37,5.07,1.43,5.95,2.62.2.27.38.52.52.68l.13.16c1.01,1.36,2.25,3.04,3.45,4.65l2.3,3.11c.37.49.79,1.06,1.14,1.49.23-.27.47-.57.65-.8.28-.36.58-.73.89-1.07l.79-.98c.45-.57.91-1.14,1.34-1.66l.05-.06c.16-.18.32-.37.47-.56,1.38-1.66,3.45-4.16,7.03-3.44l.2.05c2.68.76,5.27,1.9,7.78,3.01,1.39.61,2.7,1.19,4.01,1.7l-1.93,4.96c-1.42-.55-2.84-1.18-4.22-1.78-2.29-1.01-4.67-2.05-6.95-2.72-.35-.02-.76.36-1.82,1.63-.17.2-.34.41-.51.6-.41.51-.85,1.06-1.28,1.6l-.97,1.2c-.19.21-.43.51-.68.83-.97,1.22-2.61,3.31-4.87,3.31Z"/>
    <path class="right-eye" d="M47.35,68.08c1.51.38,2.9.85,4.16,1.35-8.31-9.73-22.07-7.93-22.75-7.83l-.27-1.92-.28-1.91c.23-.03,5.68-.8,12.15.78,8.32,2.03,14.5,7.02,17.95,14.44.07.05.12.09.14.1l-.06.08c.13.29.27.57.39.87l-1.48.62-1.14,1.56c-.65-.47-16.06-11.44-29.89-.1l-2.45-2.99c6.71-5.5,14.85-7.24,23.53-5.03Z"/>
    <path class="right-brow" d="M23.25,45.72s20.63,4.65,29.59-12.84" style="fill: none; stroke: #a76b00; stroke-miterlimit: 10; stroke-width: 6px;"/>
    <path class="left-eye" d="M86.53,68.08c-1.51.38-2.9.85-4.16,1.35,8.31-9.73,22.07-7.93,22.75-7.83l.27-1.92.28-1.91c-.23-.03-5.68-.8-12.15.78-8.32,2.03-14.5,7.02-17.95,14.44-.07.05-.12.09-.14.1l.06.08c-.13.29-.27.57-.39.87l1.48.62,1.14,1.56c.65-.47,16.06-11.44,29.89-.1l2.45-2.99c-6.71-5.5-14.85-7.24-23.53-5.03Z"/>
    <path class="left-brow" d="M114.1,42.91s-20.12,6.51-30.64-10.1" style="fill: none; stroke: #a76b00; stroke-miterlimit: 10; stroke-width: 6px;"/>
  </g>
</svg>