<?xml version="1.0" encoding="UTF-8"?>
<svg id="stunned" xmlns="http://www.w3.org/2000/svg" xmlns:xlink="http://www.w3.org/1999/xlink" viewBox="0 0 138 138">
  <defs>
    <filter id="drop-shadow-1" x="0" y="0" width="138" height="138" filterUnits="userSpaceOnUse">
      <feOffset dx="2" dy="2"/>
      <feGaussianBlur result="blur" stdDeviation="1"/>
      <feFlood flood-color="#000" flood-opacity=".53"/>
      <feComposite in2="blur" operator="in"/>
      <feComposite in="SourceGraphic"/>
    </filter>
    <filter id="drop-shadow-2" x="64" y="16" width="66" height="67" filterUnits="userSpaceOnUse">
      <feOffset dx="3" dy="3"/>
      <feGaussianBlur result="blur-2" stdDeviation="3"/>
      <feFlood flood-color="#000" flood-opacity=".6"/>
      <feComposite in2="blur-2" operator="in"/>
      <feComposite in="SourceGraphic"/>
    </filter>
    <filter id="drop-shadow-3" x="4" y="17" width="65" height="67" filterUnits="userSpaceOnUse">
      <feOffset dx="-3" dy="4"/>
      <feGaussianBlur result="blur-3" stdDeviation="3"/>
      <feFlood flood-color="#000" flood-opacity=".6"/>
      <feComposite in2="blur-3" operator="in"/>
      <feComposite in="SourceGraphic"/>
    </filter>
  </defs>
  <circle class="emoji-head" cx="67.42" cy="66.68" r="62.5" style="fill: #ffd21c; filter: url(#drop-shadow-1); stroke: #f4b70b; stroke-linecap: round; stroke-linejoin: round; stroke-width: 6px;"/>
  <g class="mouth">
    <path d="M28.21,80.8c13.72,3.23,61.95,3.51,76.77,0,.51-.12.96.34.84.85-1.13,4.57-4.58,16.23-14.66,23.4-5.73,4.08-13.57,7.06-24.25,7.06-29.93,0-38.07-24.77-39.54-30.45-.13-.51.32-.98.83-.86Z" style="fill: #dd8100; stroke: #000; stroke-miterlimit: 10; stroke-width: 3px;"/>
    <path d="M28.11,81.37c13.23,3.51,63.22,3.69,76.98.11.2-.05.38.15.29.34l-2.86,6.41c-.21.48-.72.79-1.28.79-9.19,1.95-20.94,3.63-34.62,3.63-9.4,0-21.25-.79-34.62-3.63-.12,0-.44-.01-.77-.22-.22-.14-.4-.34-.51-.58l-2.91-6.53c-.08-.19.09-.4.29-.34Z" style="fill: #fff; stroke: #000; stroke-miterlimit: 10; stroke-width: 3px;"/>
  </g>
  <path class="left-eye" d="M98.23,25.38l1.51,15.03c.01.1.09.19.19.21l14.76,3.21c1.14.25,1.3,1.82.23,2.29l-13.83,6.08c-.1.04-.15.14-.14.25l1.51,15.03c.12,1.17-1.33,1.8-2.11.93l-10.06-11.27c-.07-.08-.18-.1-.28-.06l-13.83,6.08c-1.07.47-2.12-.7-1.53-1.72l7.61-13.05c.05-.09.04-.2-.03-.28l-10.06-11.27c-.78-.87.01-2.24,1.16-1.99l14.76,3.21c.1.02.21-.02.26-.11l7.61-13.05c.59-1.01,2.13-.68,2.25.49Z" style="fill: #ffb228; filter: url(#drop-shadow-2); stroke: #f7931e; stroke-miterlimit: 10; stroke-width: 3px;"/>
  <path class="right-eye" d="M34.98,25.38l-1.51,15.03c-.01.1-.09.19-.19.21l-14.76,3.21c-1.14.25-1.3,1.82-.23,2.29l13.83,6.08c.1.04.15.14.14.25l-1.51,15.03c-.12,1.17,1.33,1.8,2.11.93l10.06-11.27c.07-.08.18-.1.28-.06l13.83,6.08c1.07.47,2.12-.7,1.53-1.72l-7.61-13.05c-.05-.09-.04-.2.03-.28l10.06-11.27c.78-.87-.01-2.24-1.16-1.99l-14.76,3.21c-.1.02-.21-.02-.26-.11l-7.61-13.05c-.59-1.01-2.13-.68-2.25.49Z" style="fill: #ffb228; filter: url(#drop-shadow-3); stroke: #f7931e; stroke-miterlimit: 10; stroke-width: 3px;"/>
</svg>