<?xml version="1.0" encoding="UTF-8"?>
<svg id="sus" xmlns="http://www.w3.org/2000/svg" xmlns:xlink="http://www.w3.org/1999/xlink" viewBox="0 0 138 138">
  <defs>
    <filter id="drop-shadow-1" x="0" y="0" width="138" height="138" filterUnits="userSpaceOnUse">
      <feOffset dx="2" dy="2"/>
      <feGaussianBlur result="blur" stdDeviation="1"/>
      <feFlood flood-color="#000" flood-opacity=".53"/>
      <feComposite in2="blur" operator="in"/>
      <feComposite in="SourceGraphic"/>
    </filter>
  </defs>
  <circle class="emoji-head" cx="66.59" cy="66.78" r="62.5" style="fill: #ffd21c; filter: url(#drop-shadow-1); stroke: #f4b70b; stroke-linecap: round; stroke-linejoin: round; stroke-width: 6px;"/>
  <path class="mouth" d="M30.87,88.77c0-1.18,0-2.14,35.73-2.14s35.73.96,35.73,2.14,0,2.14-35.73,2.14-35.73-.96-35.73-2.14Z" style="stroke: #000; stroke-miterlimit: 10; stroke-width: 5px;"/>
  <g class="right-eye">
    <ellipse class="Eye" cx="43.33" cy="57" rx="12.55" ry="12.14" style="fill: #fff;"/>
    <ellipse cx="43.33" cy="57" rx="8.62" ry="8.24"/>
  </g>
  <path class="right-brow" d="M55.88,41.91s-7.28-.14-12.21-4.32-14.05,0-14.05,0l-3.89,1.35" style="fill: none; stroke: #000; stroke-miterlimit: 10; stroke-width: 7px;"/>
  <g class="left-eye">
    <path d="M89.08,70.6c-7.41,0-13.22-7.12-13.22-16.21s5.81-16.21,13.22-16.21,13.22,7.12,13.22,16.21-5.81,16.21-13.22,16.21Z" style="fill: #fff;"/>
    <ellipse cx="89.08" cy="54.39" rx="8.38" ry="11.37"/>
  </g>
  <path class="left-brow" d="M75.84,34.2s20.5-19.72,26.49-3.28" style="fill: none; stroke: #000; stroke-miterlimit: 10; stroke-width: 7px;"/>
</svg>