<?xml version="1.0" encoding="UTF-8"?>
<svg id="sweat" xmlns="http://www.w3.org/2000/svg" xmlns:xlink="http://www.w3.org/1999/xlink" viewBox="0 0 131.14 129">
  <defs>
    <filter id="drop-shadow-1" x="0" y="0" width="129" height="129" filterUnits="userSpaceOnUse">
      <feOffset dx="2" dy="2"/>
      <feGaussianBlur result="blur" stdDeviation="1"/>
      <feFlood flood-color="#000" flood-opacity=".53"/>
      <feComposite in2="blur" operator="in"/>
      <feComposite in="SourceGraphic"/>
    </filter>
  </defs>
  <circle class="emoji-head" cx="62.3" cy="62.46" r="58.16" style="fill: #ffd21c; filter: url(#drop-shadow-1); stroke: #f4b70b; stroke-linecap: round; stroke-linejoin: round; stroke-width: 6px;"/>
  <g class="mouth">
    <path d="M26.58,74.97c12.77,3.01,57.65,3.27,71.44,0,.47-.11.9.32.78.79-1.05,4.25-4.26,15.1-13.64,21.77-5.33,3.8-12.63,6.57-22.57,6.57-27.85,0-35.42-23.05-36.79-28.33-.12-.48.3-.91.78-.8Z" style="fill: #dd8100; stroke: #000; stroke-miterlimit: 10; stroke-width: 3px;"/>
    <path d="M26.48,75.5c12.31,3.27,58.83,3.43,71.64.11.19-.05.35.14.27.32l-2.66,5.97c-.2.45-.67.74-1.19.74-8.55,1.81-19.49,3.38-32.22,3.38-8.75,0-19.78-.74-32.22-3.38-.11,0-.41-.01-.71-.2-.21-.13-.37-.31-.47-.54l-2.7-6.07c-.08-.18.08-.37.27-.32Z" style="fill: #fff; stroke: #000; stroke-miterlimit: 10; stroke-width: 3px;"/>
  </g>
  <g class="right-eye">
    <circle class="Eye" cx="41.9" cy="47.94" r="13.42" style="fill: #fff;"/>
    <ellipse cx="40.8" cy="48.68" rx="9.01" ry="9.91"/>
  </g>
  <path class="right-brow" d="M42.67,27.43s-5.82,12.54-21.75,15.01" style="fill: none; stroke: #000; stroke-miterlimit: 10; stroke-width: 7px;"/>
  <g class="left-eye">
    <circle class="Eye-2" data-name="Eye" cx="83.95" cy="47.94" r="13.42" style="fill: #fff;"/>
    <ellipse cx="82.86" cy="48.68" rx="9.01" ry="9.91"/>
  </g>
  <path class="left-brow" d="M83.95,26.18s4.27,13.15,19.79,17.51" style="fill: none; stroke: #000; stroke-miterlimit: 10; stroke-width: 7px;"/>
  <path id="drop" d="M128.89,44.48c1.36,6.51-2.83,12.89-9.34,14.25s-12.89-2.83-14.25-9.34,4.47-27.99,6.4-28.39c0,0,15.84,16.97,17.19,23.48Z" style="fill: #78b2ff; stroke: blue; stroke-miterlimit: 10; stroke-width: 4px;"/>
</svg>